<svg xmlns="http://www.w3.org/2000/svg" viewBox="0 0 240 240">
  <defs>
    <linearGradient id="gradient" x1="0%" y1="0%" x2="100%" y2="0%">
      <stop offset="0%"   stop-color="#3a3a3a"/>
      <stop offset="100%" stop-color="#606060"/>
    </linearGradient>
  </defs>
  <rect x="0" y="0" width="240" height="240" fill="url(#gradient)"/>
  <path d="M41.9,132.3c0-8.6,2.6-16.6,7.6-23.4l-16-16.1c-7.6,8.6-12.4,19.6-12.4,31.6c0,25.9,21,46.9,46.9,46.9
    c12,0,23-4.7,31.6-12.4l-16.1-16C59.5,148.9,41.9,141,41.9,132.3z"/>
  <path d="M106.8,80.9l16.1,16.1c7.6-8.6,12.4-19.6,12.4-31.6c0-25.9-21-46.9-46.9-46.9c-12,0-23,4.7-31.6,12.4l16.1,16
    c4.9-6,11.6-9.7,19.2-9.7C95.2,21.2,118.1,44,118.1,70.9C118.1,78.5,115.1,85,106.8,80.9z"/>
  <path d="M198.1,107.6c0,8.6-2.6,16.6-7.6,23.4l16,16.1c7.6-8.6,12.4-19.6,12.4-31.6c0-25.9-21-46.9-46.9-46.9
    c-12,0-23,4.7-31.6,12.4l16.1,16C180.5,91,198.1,98.9,198.1,107.6z"/>
  <text x="73" y="200" font-size="40" fill="white">BP</text>
</svg>
